# xmcd
#
# Track frame offsets:
#	150
#	15382
#	29536
#	55816
#	70940
#	96890
#	113946
#	133538
#	173748
#	186107
#
# Disc length: 3090 seconds
#
# Revision: 0
# Processed by: cddbd v1.5.2PL0 Copyright (c) Steve Scherf et al.
# Submitted via: EZCDAudioConverter 5.1.1.1
#
DISCID=810c100a
DTITLE=Last Call - Rockin In My Limousine
DYEAR=2002
DGENRE=Bluesrock
TTITLE0=Retry Ignore Or Cancel
TTITLE1=Tina Nina Nu
TTITLE2=She's All Right
TTITLE3=Purple Haze
TTITLE4=I Need You Tonight
TTITLE5=Whole Love Pack
TTITLE6=Couldn't Stand The Weather
TTITLE7=Lenny
TTITLE8=Iceman
TTITLE9=Voodoo Chile - Third Stone From The Sun
EXTD=
EXTT0=
EXTT1=
EXTT2=
EXTT3=
EXTT4=
EXTT5=
EXTT6=
EXTT7=
EXTT8=
EXTT9=
PLAYORDER=
